<?xml version="1.0" standalone="no"?>
<!DOCTYPE svg PUBLIC "-//W3C//DTD SVG 20010904//EN"
 "http://www.w3.org/TR/2001/REC-SVG-20010904/DTD/svg10.dtd">
<svg version="1.0" xmlns="http://www.w3.org/2000/svg"
 width="1920.000000pt" height="656.000000pt" viewBox="0 0 1920.000000 656.000000"
 preserveAspectRatio="xMidYMid meet">
<metadata>
Created by potrace 1.16, written by Peter Selinger 2001-2019
</metadata>
<g transform="translate(0.000000,656.000000) scale(0.100000,-0.100000)"
fill="#000000" stroke="none">
<path d="M778 5988 l-3 -273 -30 -4 -30 -4 30 -6 30 -6 0 -540 0 -540 -30 -6
-30 -6 30 -4 30 -4 0 -530 0 -529 -25 -7 -25 -7 28 -1 27 -1 -2 -542 -3 -543
-30 -6 -30 -6 30 -4 30 -4 3 -527 2 -526 -27 -10 -28 -10 28 -1 27 -1 0 -275
0 -275 413 -2 412 -3 6 -40 6 -40 2 43 1 42 833 -2 832 -3 6 -35 6 -35 2 38 1
37 830 0 830 0 1 -42 2 -43 6 40 6 40 830 0 830 0 6 -40 5 -40 5 40 4 40 830
0 830 0 6 -35 6 -35 2 38 1 37 425 0 425 0 0 2735 0 2735 -4200 0 -4200 0 -2
-272z m6031 -815 c1 -16 7 -23 21 -23 31 0 24 -26 -14 -50 -19 -11 -36 -26
-39 -33 -3 -9 -8 -9 -20 1 -9 8 -14 19 -11 27 3 7 -3 16 -13 19 -18 6 -53 58
-53 80 0 13 29 41 51 48 21 7 77 -43 78 -69z m-3424 -18 c14 -13 25 -33 25
-44 0 -24 -20 -71 -31 -71 -4 0 -9 -10 -11 -21 -4 -26 -46 -47 -44 -22 0 8 -8
20 -19 27 -43 25 -57 49 -50 90 3 22 13 45 23 52 28 22 80 17 107 -11z m3115
-171 c6 -14 10 -39 10 -55 0 -16 9 -38 21 -50 17 -17 19 -23 8 -30 -53 -34
-149 35 -135 98 12 56 18 63 52 63 28 0 36 -5 44 -26z m-3059 -20 c58 -26 64
-31 67 -50 2 -10 15 -29 30 -41 21 -18 23 -24 13 -36 -9 -12 -7 -19 13 -35
l25 -19 -19 -38 c-22 -42 -20 -50 11 -58 16 -4 30 3 54 28 24 26 34 32 43 23
7 -7 12 -17 12 -23 0 -7 18 -20 40 -31 35 -17 40 -24 45 -64 9 -70 17 -98 22
-77 6 22 8 21 43 -5 24 -17 32 -19 45 -8 8 7 15 16 15 21 0 5 8 17 18 27 31
31 90 18 134 -29 24 -25 46 -39 63 -39 19 0 25 -5 25 -23 0 -23 33 -67 50 -67
4 0 11 -13 15 -29 9 -40 21 -48 88 -56 34 -5 61 -13 66 -22 6 -12 12 -13 29
-4 28 15 39 14 46 -6 11 -26 -12 -40 -28 -17 -18 25 -24 18 -27 -32 -3 -40 22
-84 46 -84 7 0 22 -11 35 -25 29 -31 34 -31 74 0 54 41 89 31 56 -15 -16 -22
-17 -30 -7 -38 8 -7 18 -7 27 -2 8 6 25 10 37 10 12 0 39 18 62 41 39 40 40
41 77 29 30 -10 40 -21 57 -60 l20 -47 36 9 c58 15 66 14 63 -3 -1 -9 5 -22
13 -29 8 -7 15 -18 15 -25 0 -7 7 -18 15 -25 8 -7 12 -17 8 -24 -4 -6 -8 -38
-8 -71 l0 -60 -57 -3 c-38 -2 -68 2 -89 12 -18 9 -36 16 -41 16 -13 0 -9 -27
7 -44 8 -8 15 -28 15 -45 0 -16 7 -37 16 -45 9 -9 17 -28 19 -41 1 -14 11 -35
21 -46 l19 -21 21 26 c26 30 69 26 61 -6 -6 -22 32 -68 56 -68 13 0 15 -7 11
-30 -6 -29 -5 -30 23 -24 27 5 31 3 37 -22 7 -28 -10 -84 -25 -84 -5 0 -9 -4
-9 -10 0 -5 12 -10 28 -10 16 0 32 -8 39 -19 11 -18 8 -22 -27 -42 -34 -19
-38 -25 -33 -51 4 -21 2 -28 -11 -28 -9 0 -16 4 -16 10 0 5 -10 18 -22 29 -19
18 -19 21 -5 27 19 7 20 13 8 33 -7 11 -13 10 -34 -4 -29 -19 -47 -13 -47 14
0 10 -7 24 -15 31 -12 10 -16 9 -21 -6 -12 -40 -39 -86 -55 -95 -9 -5 -41 -8
-70 -6 -48 2 -54 5 -59 27 -4 20 -12 26 -39 28 -27 2 -40 -4 -60 -25 -41 -44
-57 -54 -75 -47 -11 4 -14 13 -11 25 5 14 0 18 -27 21 -28 3 -33 7 -36 33 -4
35 -38 75 -64 75 -23 0 -25 52 -3 70 13 11 18 10 29 -6 8 -10 17 -16 20 -13 3
3 -3 15 -13 26 -11 11 -21 33 -23 49 -3 30 -38 49 -38 21 0 -8 -11 -39 -24
-69 -26 -59 -40 -68 -107 -68 -49 0 -73 28 -76 88 -1 26 -2 50 -2 54 -2 13
-58 24 -109 20 -45 -3 -55 -8 -64 -28 -14 -29 -18 -29 -70 -4 -23 11 -47 20
-54 20 -6 0 -17 6 -23 14 -9 10 -8 15 4 20 8 3 15 12 15 21 0 9 7 29 15 45 11
22 23 30 42 30 21 0 24 -3 15 -12 -7 -7 -12 -24 -12 -39 0 -21 8 -31 32 -43
39 -20 44 -20 28 -1 -6 8 -16 30 -20 50 -7 29 -5 38 12 49 17 12 19 21 13 54
-4 24 -13 42 -23 46 -9 3 -25 11 -35 18 -15 11 -21 9 -42 -17 -13 -16 -24 -42
-25 -57 0 -29 -24 -48 -59 -48 -11 0 -22 -8 -24 -17 -3 -10 -4 -6 -3 8 1 15 7
34 14 42 16 19 5 67 -14 67 -8 0 -14 5 -14 10 0 6 -4 10 -10 10 -5 0 -10 -7
-10 -15 0 -8 -4 -15 -10 -15 -15 0 -12 33 6 58 9 13 13 29 10 37 -2 7 2 19 10
25 18 16 18 60 0 60 -17 0 -26 22 -26 60 0 16 -5 32 -11 36 -6 3 -8 17 -4 31
4 19 0 32 -16 50 -15 15 -23 37 -24 61 0 20 -5 43 -9 50 -5 8 -4 18 3 25 18
18 13 29 -9 17 -11 -6 -18 -15 -15 -20 3 -5 -7 -12 -22 -16 -15 -3 -50 -12
-76 -20 -30 -8 -55 -10 -65 -4 -9 5 -24 11 -32 15 -27 11 -63 33 -69 43 -3 6
-4 47 -1 92 4 73 3 85 -15 105 -11 12 -29 33 -39 46 l-19 23 -15 -32 c-15 -30
-19 -32 -69 -32 -59 0 -85 -10 -117 -45 -33 -36 -69 -39 -105 -9 -37 31 -42
79 -11 112 21 22 37 26 98 22 19 -1 33 4 36 12 1 7 8 28 14 47 11 32 9 36 -19
64 -33 31 -33 35 -15 143 6 31 46 74 84 90 31 14 82 10 82 -6 0 -23 34 -17 58
9 32 35 30 35 73 15z m3773 -19 c3 -8 14 -15 25 -15 16 0 21 -9 26 -44 4 -24
4 -53 0 -65 -5 -18 -2 -21 19 -21 15 0 26 -6 26 -13 0 -8 9 -22 19 -31 29 -26
34 -62 14 -96 -20 -35 -43 -44 -88 -36 -25 5 -37 15 -49 41 -16 33 -16 37 0
71 22 45 8 64 -30 39 -25 -16 -26 -16 -51 12 -13 15 -24 35 -22 43 4 23 40 18
53 -8 21 -43 25 -36 21 46 -3 76 0 88 24 91 4 1 9 -6 13 -14z m-957 -15 c31
-14 32 -15 29 -72 -2 -39 -8 -64 -19 -76 -24 -23 -90 -22 -116 2 -27 24 -28
85 -3 109 29 29 67 56 72 53 3 -1 19 -9 37 -16z m583 -7 c46 -44 33 -111 -30
-143 -45 -23 -44 -41 1 -64 35 -18 32 -81 -6 -112 -31 -25 -28 -36 14 -54 20
-8 38 -27 51 -56 l21 -43 -20 -22 c-15 -16 -18 -26 -11 -40 9 -17 13 -17 46
-3 19 8 39 12 43 9 16 -9 20 -46 5 -52 -8 -3 -14 -9 -14 -13 0 -12 44 -20 51
-9 3 5 7 -13 8 -42 2 -66 6 -71 46 -63 18 3 35 1 39 -4 9 -14 79 24 88 48 10
26 38 26 38 -1 0 -11 11 -40 24 -63 l24 -44 -24 -11 c-19 -8 -24 -8 -24 4 0
39 -85 22 -96 -20 -8 -32 -40 -30 -38 3 1 23 -37 72 -56 72 -5 0 -18 -9 -27
-20 -10 -11 -25 -20 -35 -20 -20 0 -24 20 -7 37 7 7 -1 12 -27 16 -42 7 -74
32 -74 57 0 10 -7 23 -15 30 -8 7 -15 16 -15 21 0 18 -44 58 -70 64 -25 6 -29
12 -35 61 -4 32 -2 60 3 67 18 22 11 68 -12 77 -45 19 -56 36 -56 82 0 42 3
47 33 61 17 8 41 17 51 19 18 3 18 5 -7 32 -17 18 -26 39 -25 55 1 15 -1 32
-6 39 -11 19 12 50 41 55 60 9 85 6 103 -10z m-732 -180 c11 -21 5 -45 -15
-56 -9 -6 -12 -20 -8 -51 5 -32 2 -46 -9 -56 -42 -34 6 -55 62 -26 15 7 52 17
84 20 35 5 58 13 62 22 3 8 19 14 41 14 29 0 37 -5 47 -27 6 -16 12 -44 12
-63 1 -34 -2 -36 -73 -72 -40 -21 -79 -38 -87 -38 -25 0 -15 -24 23 -56 31
-26 35 -34 29 -58 -8 -31 -62 -86 -85 -86 -8 0 -30 17 -50 38 -20 21 -45 42
-56 46 -34 13 -97 17 -110 6 -13 -11 -95 23 -95 40 0 6 -7 10 -16 10 -8 0 -13
4 -10 9 4 5 3 17 -1 28 -6 13 -10 4 -15 -32 -15 -105 -21 -130 -32 -137 -6 -4
-35 -8 -65 -8 -41 0 -52 -3 -48 -14 3 -7 0 -19 -6 -25 -20 -20 0 -23 35 -5 18
9 35 20 38 24 9 13 54 6 67 -10 11 -13 17 -11 41 16 l29 31 35 -21 c44 -25 60
-49 67 -101 5 -36 11 -43 56 -65 27 -14 57 -32 66 -40 25 -22 33 -64 16 -82
-8 -7 -17 -24 -21 -36 -10 -29 -75 -82 -102 -82 -29 0 -50 26 -36 43 7 8 7 18
2 27 -8 13 -12 12 -24 -5 -14 -19 -15 -19 -21 10 -11 51 -14 55 -35 55 -11 0
-37 -7 -57 -15 -33 -14 -35 -17 -28 -48 9 -43 9 -48 1 -74 -6 -17 -3 -23 8
-23 28 0 17 -29 -21 -55 -48 -32 -63 -32 -97 4 -26 27 -28 35 -24 87 3 38 0
67 -10 86 -8 17 -12 42 -8 58 5 30 -5 44 -34 46 -8 1 -22 2 -31 3 -9 0 -19 10
-22 21 -3 11 -13 20 -22 20 -9 0 -15 6 -12 13 2 6 10 12 18 12 18 0 24 35 7
46 -24 16 -56 10 -63 -12 -9 -26 -63 -49 -112 -48 -31 2 -33 3 -10 6 36 6 30
25 -11 37 -22 6 -32 15 -32 28 0 13 -6 18 -17 16 -12 -2 -17 -11 -15 -26 2
-12 -2 -22 -7 -22 -6 0 -11 -9 -11 -21 0 -13 11 -25 35 -35 19 -8 35 -21 35
-29 0 -22 -39 -58 -55 -51 -8 3 -23 -7 -34 -22 -12 -15 -29 -36 -40 -47 -32
-32 -35 -67 -10 -99 26 -33 16 -48 -33 -51 -18 -1 -43 -5 -55 -9 -16 -5 -23
-2 -28 14 -4 13 -15 20 -32 20 -17 0 -24 -4 -20 -14 3 -8 3 -17 -1 -20 -3 -4
-12 13 -19 36 -16 56 -16 58 5 58 16 1 16 1 0 14 -25 18 -23 23 11 31 32 7 55
29 65 63 4 12 14 22 21 22 19 0 49 57 35 65 -6 3 -14 4 -19 1 -5 -3 -14 1 -21
9 -9 11 -16 12 -26 4 -9 -8 -15 -5 -24 10 -9 18 -8 21 8 21 10 0 23 -5 29 -11
6 -6 17 -8 23 -4 9 6 9 9 1 15 -7 3 -9 14 -5 23 3 9 10 14 15 11 6 -3 16 0 24
6 8 7 21 10 30 7 19 -8 25 3 42 86 22 107 35 127 83 127 29 0 40 -5 45 -19 3
-10 23 -26 45 -36 47 -21 105 -72 114 -101 5 -15 13 -20 34 -18 15 1 34 2 43
3 8 1 24 7 35 15 18 14 18 15 -6 26 -55 25 -80 42 -91 63 -6 12 -19 29 -29 37
-17 14 -17 18 -3 52 11 27 21 38 36 37 55 0 91 16 133 58 25 24 42 49 38 54
-3 5 2 21 11 35 15 24 15 28 0 67 -16 40 -16 42 5 59 30 25 34 24 73 -22 19
-22 41 -40 50 -40 9 0 20 -7 24 -15 9 -15 53 -10 53 5 0 5 15 4 32 -1 18 -5
40 -6 50 -3 16 5 16 7 -2 27 -11 11 -20 26 -20 33 0 6 -7 17 -15 24 -17 14
-20 40 -5 40 5 0 21 10 36 23 22 19 50 32 76 36 4 1 11 -7 16 -16z m-766 -105
c-4 -17 -1 -19 16 -14 12 4 37 4 56 1 28 -6 36 -13 41 -37 4 -17 3 -40 -2 -52
-21 -45 -32 -88 -26 -102 3 -9 1 -25 -5 -37 -5 -12 -13 -31 -17 -42 -6 -19 -7
-19 -23 2 -13 17 -27 22 -58 21 -65 -1 -84 9 -84 43 0 17 5 29 13 29 9 0 14
13 15 36 1 24 8 42 21 50 15 11 18 20 12 42 -4 15 -4 41 1 59 6 24 12 30 27
26 13 -3 17 -11 13 -25z m1804 -141 c10 -66 10 -69 -10 -77 -12 -4 -25 -4 -31
0 -5 5 -32 10 -59 12 -44 4 -51 8 -59 32 -16 48 4 74 63 82 27 4 50 11 50 16
0 5 8 8 17 6 13 -2 20 -20 29 -71z m-2190 -165 c5 3 32 2 61 -1 45 -6 52 -5
56 11 6 23 31 23 53 1 9 -10 36 -23 58 -30 25 -6 32 -11 19 -12 -36 -2 -53
-12 -53 -32 0 -12 -7 -19 -19 -19 -11 0 -22 -4 -25 -9 -3 -4 -17 -6 -31 -3
-21 4 -25 1 -25 -19 0 -15 -3 -20 -8 -12 -10 16 -52 5 -52 -13 0 -23 -26 -27
-59 -10 -35 18 -61 58 -42 64 6 2 11 11 11 19 0 13 -3 13 -16 2 -13 -10 -17
-10 -25 2 -15 24 -10 38 24 69 l32 29 16 -21 c9 -11 20 -19 25 -16z m1470
-133 c15 -16 16 -24 6 -39 -15 -25 -15 -30 2 -30 7 0 16 -13 20 -30 5 -28 11
-31 51 -30 3 0 18 -6 34 -15 22 -11 31 -24 36 -55 8 -47 -4 -66 -50 -86 -24
-10 -35 -10 -57 2 -39 20 -51 17 -68 -17 -18 -37 -61 -65 -85 -55 -13 5 -15 9
-6 20 9 10 6 17 -14 30 -15 10 -32 15 -38 13 -7 -2 -18 8 -24 22 -7 14 -18 33
-24 42 -15 20 -6 58 21 86 11 12 20 26 20 30 0 5 14 14 30 20 26 10 30 16 30
47 0 28 5 38 28 50 38 21 66 20 88 -5z m-2696 -114 c-9 -10 -9 -27 -2 -62 11
-51 9 -57 -23 -67 -15 -4 -26 3 -44 30 -14 20 -35 40 -48 45 -31 12 -31 49 0
49 12 1 40 13 62 29 38 26 41 27 53 9 11 -15 11 -22 2 -33z m3083 -14 c16 -6
28 -24 40 -61 l17 -52 -27 -22 c-15 -11 -34 -26 -42 -33 -46 -36 -121 16 -121
84 0 48 7 58 50 77 42 18 51 19 83 7z"/>
<path d="M10468 5988 l-3 -273 -30 -4 -30 -4 30 -6 30 -6 0 -540 0 -540 -30
-6 -30 -6 30 -4 30 -4 0 -530 0 -529 -25 -7 -25 -7 28 -1 27 -1 -2 -542 -3
-543 -30 -6 -30 -6 30 -4 30 -4 3 -527 2 -526 -27 -10 -28 -10 28 -1 27 -1 0
-275 0 -275 413 -2 412 -3 6 -40 6 -40 2 43 1 42 833 -2 832 -3 6 -35 6 -35 2
38 1 37 830 0 830 0 1 -42 2 -43 6 40 6 40 830 0 830 0 6 -40 5 -40 5 40 4 40
830 0 830 0 6 -35 6 -35 2 38 1 37 425 0 425 0 0 2735 0 2735 -4200 0 -4200 0
-2 -272z m1909 -3560 l23 -21 0 -731 0 -730 -22 -23 -21 -23 -863 0 -863 0
-26 25 -25 26 0 724 0 724 25 26 26 25 861 0 862 0 23 -22z"/>
<path d="M11456 2251 c-4 -5 -10 -40 -15 -78 -5 -37 -12 -76 -16 -85 -5 -13
-2 -18 9 -18 9 0 19 13 24 33 12 47 47 49 66 3 14 -33 51 -64 63 -52 3 3 -6
23 -21 44 -30 44 -33 70 -9 87 14 11 16 18 8 42 -9 25 -16 28 -57 31 -25 2
-49 -1 -52 -7z"/>
<path d="M10687 2183 c-10 -3 -17 -12 -15 -21 3 -15 29 -17 268 -17 236 0 265
2 268 16 2 10 -6 19 -20 23 -26 7 -474 6 -501 -1z"/>
<path d="M12038 1722 c-8 -9 -21 -32 -28 -50 -16 -41 1 -79 37 -84 36 -5 33
-23 -4 -26 -43 -4 -43 -22 -1 -22 41 0 78 40 78 85 0 17 5 36 11 42 6 6 9 23
7 38 -3 24 -8 28 -44 31 -30 3 -45 -1 -56 -14z"/>
<path d="M10680 1716 c0 -8 7 -17 16 -20 20 -8 468 -8 488 0 9 3 16 12 16 20
0 12 -44 14 -260 14 -216 0 -260 -2 -260 -14z"/>
<path d="M12038 1242 c-8 -9 -20 -30 -28 -45 -12 -25 -12 -31 2 -55 9 -15 25
-29 35 -30 31 -6 39 -22 11 -22 -40 0 -63 -11 -46 -21 45 -29 108 18 108 81 0
21 5 42 10 45 6 3 10 19 10 34 0 27 -3 29 -44 29 -30 1 -48 -4 -58 -16z"/>
</g>
</svg>
