<?xml version="1.0" standalone="no"?>
<!DOCTYPE svg PUBLIC "-//W3C//DTD SVG 20010904//EN"
 "http://www.w3.org/TR/2001/REC-SVG-20010904/DTD/svg10.dtd">
<svg version="1.0" xmlns="http://www.w3.org/2000/svg"
 width="1920.000000pt" height="656.000000pt" viewBox="0 0 1920.000000 656.000000"
 preserveAspectRatio="xMidYMid meet">

<g transform="translate(0.000000,656.000000) scale(0.100000,-0.100000)"
fill="#000000" stroke="none">
<path d="M778 5988 l-3 -273 -30 -4 -30 -4 30 -6 30 -6 0 -540 0 -540 -30 -6
-30 -6 30 -4 30 -4 0 -530 0 -529 -25 -7 -25 -7 28 -1 27 -1 -2 -542 -3 -543
-30 -6 -30 -6 30 -4 30 -4 3 -527 2 -526 -27 -10 -28 -10 28 -1 27 -1 0 -275
0 -275 413 -2 412 -3 6 -40 6 -40 2 43 1 42 833 -2 832 -3 6 -35 6 -35 2 38 1
37 830 0 830 0 1 -42 2 -43 6 40 6 40 830 0 830 0 6 -40 5 -40 5 40 4 40 830
0 830 0 6 -35 6 -35 2 38 1 37 425 0 425 0 0 2735 0 2735 -4200 0 -4200 0 -2
-272z m6031 -815 c1 -16 7 -23 21 -23 31 0 24 -26 -14 -50 -19 -11 -36 -26
-39 -33 -3 -9 -8 -9 -20 1 -9 8 -14 19 -11 27 3 7 -3 16 -13 19 -18 6 -53 58
-53 80 0 13 29 41 51 48 21 7 77 -43 78 -69z m-3424 -18 c14 -13 25 -33 25
-44 0 -24 -20 -71 -31 -71 -4 0 -9 -10 -11 -21 -4 -26 -46 -47 -44 -22 0 8 -8
20 -19 27 -43 25 -57 49 -50 90 3 22 13 45 23 52 28 22 80 17 107 -11z m-335
-20 c0 -26 -100 -59 -114 -37 -15 25 90 83 106 58 4 -6 8 -15 8 -21z m2510
-75 c0 -5 7 -10 15 -10 8 0 15 -5 15 -11 0 -5 5 -7 10 -4 6 3 10 2 10 -4 0 -6
-11 -14 -26 -17 -30 -8 -84 34 -62 48 18 11 38 10 38 -2z m940 -76 c6 -14 10
-39 10 -55 0 -16 9 -38 21 -50 17 -17 19 -23 8 -30 -53 -34 -149 35 -135 98
12 56 18 63 52 63 28 0 36 -5 44 -26z m-3059 -20 c58 -26 64 -31 67 -50 2 -10
15 -29 30 -41 21 -18 23 -24 13 -36 -9 -12 -7 -19 13 -35 l25 -19 -19 -38
c-22 -42 -20 -50 11 -58 16 -4 30 3 54 28 24 26 34 32 43 23 7 -7 12 -17 12
-23 0 -7 18 -20 40 -31 35 -17 40 -24 45 -64 9 -70 17 -98 22 -77 6 22 8 21
43 -5 24 -17 32 -19 45 -8 8 7 15 16 15 21 0 5 8 17 18 27 31 31 90 18 134
-29 24 -25 46 -39 63 -39 19 0 25 -5 25 -23 0 -23 33 -67 50 -67 4 0 11 -13
15 -29 9 -40 21 -48 88 -56 34 -5 61 -13 66 -22 6 -12 12 -13 29 -4 28 15 39
14 46 -6 11 -26 -12 -40 -28 -17 -18 25 -24 18 -27 -32 -3 -40 22 -84 46 -84
7 0 22 -11 35 -25 29 -31 34 -31 74 0 54 41 89 31 56 -15 -16 -22 -17 -30 -7
-38 8 -7 18 -7 27 -2 8 6 25 10 37 10 12 0 39 18 62 41 39 40 40 41 77 29 30
-10 40 -21 57 -60 l20 -47 36 9 c58 15 66 14 63 -3 -1 -9 5 -22 13 -29 8 -7
15 -18 15 -25 0 -7 7 -18 15 -25 8 -7 12 -17 8 -24 -4 -6 -8 -38 -8 -71 l0
-60 -57 -3 c-38 -2 -68 2 -89 12 -18 9 -36 16 -41 16 -13 0 -9 -27 7 -44 8 -8
15 -28 15 -45 0 -16 7 -37 16 -45 9 -9 17 -28 19 -41 1 -14 11 -35 21 -46 l19
-21 21 26 c26 30 69 26 61 -6 -6 -22 32 -68 56 -68 13 0 15 -7 11 -30 -6 -29
-5 -30 23 -24 27 5 31 3 37 -22 7 -28 -10 -84 -25 -84 -5 0 -9 -4 -9 -10 0 -5
12 -10 28 -10 16 0 32 -8 39 -19 11 -18 8 -22 -27 -42 -34 -19 -38 -25 -33
-51 4 -21 2 -28 -11 -28 -9 0 -16 4 -16 10 0 5 -10 18 -22 29 -19 18 -19 21
-5 27 19 7 20 13 8 33 -7 11 -13 10 -34 -4 -29 -19 -47 -13 -47 14 0 10 -7 24
-15 31 -12 10 -16 9 -21 -6 -12 -40 -39 -86 -55 -95 -9 -5 -41 -8 -70 -6 -48
2 -54 5 -59 27 -4 20 -12 26 -39 28 -27 2 -40 -4 -60 -25 -41 -44 -57 -54 -75
-47 -11 4 -14 13 -11 25 5 14 0 18 -27 21 -28 3 -33 7 -36 33 -4 35 -38 75
-64 75 -23 0 -25 52 -3 70 13 11 18 10 29 -6 8 -10 17 -16 20 -13 3 3 -3 15
-13 26 -11 11 -21 33 -23 49 -3 30 -38 49 -38 21 0 -8 -11 -39 -24 -69 -26
-59 -40 -68 -107 -68 -49 0 -73 28 -76 88 -1 26 -2 50 -2 54 -2 13 -58 24
-109 20 -45 -3 -55 -8 -64 -28 -14 -29 -18 -29 -70 -4 -23 11 -47 20 -54 20
-6 0 -17 6 -23 14 -9 10 -8 15 4 20 8 3 15 12 15 21 0 9 7 29 15 45 11 22 23
30 42 30 21 0 24 -3 15 -12 -7 -7 -12 -24 -12 -39 0 -21 8 -31 32 -43 39 -20
44 -20 28 -1 -6 8 -16 30 -20 50 -7 29 -5 38 12 49 17 12 19 21 13 54 -4 24
-13 42 -23 46 -9 3 -25 11 -35 18 -15 11 -21 9 -42 -17 -13 -16 -24 -42 -25
-57 0 -29 -24 -48 -59 -48 -11 0 -22 -8 -24 -17 -3 -10 -4 -6 -3 8 1 15 7 34
14 42 16 19 5 67 -14 67 -8 0 -14 5 -14 10 0 6 -4 10 -10 10 -5 0 -10 -7 -10
-15 0 -8 -4 -15 -10 -15 -15 0 -12 33 6 58 9 13 13 29 10 37 -2 7 2 19 10 25
18 16 18 60 0 60 -17 0 -26 22 -26 60 0 16 -5 32 -11 36 -6 3 -8 17 -4 31 4
19 0 32 -16 50 -15 15 -23 37 -24 61 0 20 -5 43 -9 50 -5 8 -4 18 3 25 18 18
13 29 -9 17 -11 -6 -18 -15 -15 -20 3 -5 -7 -12 -22 -16 -15 -3 -50 -12 -76
-20 -30 -8 -55 -10 -65 -4 -9 5 -24 11 -32 15 -27 11 -63 33 -69 43 -3 6 -4
47 -1 92 4 73 3 85 -15 105 -11 12 -29 33 -39 46 l-19 23 -15 -32 c-15 -30
-19 -32 -69 -32 -59 0 -85 -10 -117 -45 -33 -36 -69 -39 -105 -9 -37 31 -42
79 -11 112 21 22 37 26 98 22 19 -1 33 4 36 12 1 7 8 28 14 47 11 32 9 36 -19
64 -33 31 -33 35 -15 143 6 31 46 74 84 90 31 14 82 10 82 -6 0 -23 34 -17 58
9 32 35 30 35 73 15z m2919 -3 c0 -23 -16 -36 -25 -21 -9 14 1 40 15 40 5 0
10 -9 10 -19z m221 -4 c-1 -4 -1 -18 -1 -32 0 -16 -6 -25 -15 -25 -15 0 -22
50 -8 64 8 8 25 3 24 -7z m-1290 -7 c29 -16 25 -66 -9 -99 -15 -16 -26 -34
-24 -40 5 -14 -27 1 -60 28 -26 21 -22 36 20 81 43 44 45 45 73 30z m1923 -5
c3 -8 14 -15 25 -15 16 0 21 -9 26 -44 4 -24 4 -53 0 -65 -5 -18 -2 -21 19
-21 15 0 26 -6 26 -13 0 -8 9 -22 19 -31 29 -26 34 -62 14 -96 -20 -35 -43
-44 -88 -36 -25 5 -37 15 -49 41 -16 33 -16 37 0 71 22 45 8 64 -30 39 -25
-16 -26 -16 -51 12 -13 15 -24 35 -22 43 4 23 40 18 53 -8 21 -43 25 -36 21
46 -3 76 0 88 24 91 4 1 9 -6 13 -14z m-957 -15 c31 -14 32 -15 29 -72 -2 -39
-8 -64 -19 -76 -24 -23 -90 -22 -116 2 -27 24 -28 85 -3 109 29 29 67 56 72
53 3 -1 19 -9 37 -16z m583 -7 c46 -44 33 -111 -30 -143 -45 -23 -44 -41 1
-64 35 -18 32 -81 -6 -112 -31 -25 -28 -36 14 -54 20 -8 38 -27 51 -56 l21
-43 -20 -22 c-15 -16 -18 -26 -11 -40 9 -17 13 -17 46 -3 19 8 39 12 43 9 16
-9 20 -46 5 -52 -8 -3 -14 -9 -14 -13 0 -12 44 -20 51 -9 3 5 7 -13 8 -42 2
-66 6 -71 46 -63 18 3 35 1 39 -4 9 -14 79 24 88 48 10 26 38 26 38 -1 0 -11
11 -40 24 -63 l24 -44 -24 -11 c-19 -8 -24 -8 -24 4 0 39 -85 22 -96 -20 -8
-32 -40 -30 -38 3 1 23 -37 72 -56 72 -5 0 -18 -9 -27 -20 -10 -11 -25 -20
-35 -20 -20 0 -24 20 -7 37 7 7 -1 12 -27 16 -42 7 -74 32 -74 57 0 10 -7 23
-15 30 -8 7 -15 16 -15 21 0 18 -44 58 -70 64 -25 6 -29 12 -35 61 -4 32 -2
60 3 67 18 22 11 68 -12 77 -45 19 -56 36 -56 82 0 42 3 47 33 61 17 8 41 17
51 19 18 3 18 5 -7 32 -17 18 -26 39 -25 55 1 15 -1 32 -6 39 -11 19 12 50 41
55 60 9 85 6 103 -10z m-867 -18 c-4 -15 -36 -12 -41 3 -3 9 3 13 19 10 13 -1
23 -7 22 -13z m36 -126 c-26 -37 -33 -41 -63 -33 l-25 6 37 49 37 50 17 -22
c17 -20 17 -22 -3 -50z m-2998 21 c10 0 19 -6 19 -14 0 -18 -58 -32 -72 -18
-15 15 -1 45 18 38 9 -3 24 -6 35 -6z m3458 -13 c15 -19 18 -59 5 -64 -6 -2
-19 8 -28 22 -26 39 -5 75 23 42z m-361 -44 c11 -21 5 -45 -15 -56 -9 -6 -12
-20 -8 -51 5 -32 2 -46 -9 -56 -42 -34 6 -55 62 -26 15 7 52 17 84 20 35 5 58
13 62 22 3 8 19 14 41 14 29 0 37 -5 47 -27 6 -16 12 -44 12 -63 1 -34 -2 -36
-73 -72 -40 -21 -79 -38 -87 -38 -25 0 -15 -24 23 -56 31 -26 35 -34 29 -58
-8 -31 -62 -86 -85 -86 -8 0 -30 17 -50 38 -20 21 -45 42 -56 46 -34 13 -97
17 -110 6 -13 -11 -95 23 -95 40 0 6 -7 10 -16 10 -8 0 -13 4 -10 9 4 5 3 17
-1 28 -6 13 -10 4 -15 -32 -15 -105 -21 -130 -32 -137 -6 -4 -35 -8 -65 -8
-41 0 -52 -3 -48 -14 3 -7 0 -19 -6 -25 -20 -20 0 -23 35 -5 18 9 35 20 38 24
9 13 54 6 67 -10 11 -13 17 -11 41 16 l29 31 35 -21 c44 -25 60 -49 67 -101 5
-36 11 -43 56 -65 27 -14 57 -32 66 -40 25 -22 33 -64 16 -82 -8 -7 -17 -24
-21 -36 -10 -29 -75 -82 -102 -82 -29 0 -50 26 -36 43 7 8 7 18 2 27 -8 13
-12 12 -24 -5 -14 -19 -15 -19 -21 10 -11 51 -14 55 -35 55 -11 0 -37 -7 -57
-15 -33 -14 -35 -17 -28 -48 9 -43 9 -48 1 -74 -6 -17 -3 -23 8 -23 28 0 17
-29 -21 -55 -48 -32 -63 -32 -97 4 -26 27 -28 35 -24 87 3 38 0 67 -10 86 -8
17 -12 42 -8 58 5 30 -5 44 -34 46 -8 1 -22 2 -31 3 -9 0 -19 10 -22 21 -3 11
-13 20 -22 20 -9 0 -15 6 -12 13 2 6 10 12 18 12 18 0 24 35 7 46 -24 16 -56
10 -63 -12 -9 -26 -63 -49 -112 -48 -31 2 -33 3 -10 6 36 6 30 25 -11 37 -22
6 -32 15 -32 28 0 13 -6 18 -17 16 -12 -2 -17 -11 -15 -26 2 -12 -2 -22 -7
-22 -6 0 -11 -9 -11 -21 0 -13 11 -25 35 -35 19 -8 35 -21 35 -29 0 -22 -39
-58 -55 -51 -8 3 -23 -7 -34 -22 -12 -15 -29 -36 -40 -47 -32 -32 -35 -67 -10
-99 26 -33 16 -48 -33 -51 -18 -1 -43 -5 -55 -9 -16 -5 -23 -2 -28 14 -4 13
-15 20 -32 20 -17 0 -24 -4 -20 -14 3 -8 3 -17 -1 -20 -3 -4 -12 13 -19 36
-16 56 -16 58 5 58 16 1 16 1 0 14 -25 18 -23 23 11 31 32 7 55 29 65 63 4 12
14 22 21 22 19 0 49 57 35 65 -6 3 -14 4 -19 1 -5 -3 -14 1 -21 9 -9 11 -16
12 -26 4 -9 -8 -15 -5 -24 10 -9 18 -8 21 8 21 10 0 23 -5 29 -11 6 -6 17 -8
23 -4 9 6 9 9 1 15 -7 3 -9 14 -5 23 3 9 10 14 15 11 6 -3 16 0 24 6 8 7 21
10 30 7 19 -8 25 3 42 86 22 107 35 127 83 127 29 0 40 -5 45 -19 3 -10 23
-26 45 -36 47 -21 105 -72 114 -101 5 -15 13 -20 34 -18 15 1 34 2 43 3 8 1
24 7 35 15 18 14 18 15 -6 26 -55 25 -80 42 -91 63 -6 12 -19 29 -29 37 -17
14 -17 18 -3 52 11 27 21 38 36 37 55 0 91 16 133 58 25 24 42 49 38 54 -3 5
2 21 11 35 15 24 15 28 0 67 -16 40 -16 42 5 59 30 25 34 24 73 -22 19 -22 41
-40 50 -40 9 0 20 -7 24 -15 9 -15 53 -10 53 5 0 5 15 4 32 -1 18 -5 40 -6 50
-3 16 5 16 7 -2 27 -11 11 -20 26 -20 33 0 6 -7 17 -15 24 -17 14 -20 40 -5
40 5 0 21 10 36 23 22 19 50 32 76 36 4 1 11 -7 16 -16z m808 -1 c6 -4 19 -24
29 -45 13 -29 15 -41 6 -50 -6 -6 -11 -19 -11 -29 0 -16 -7 -19 -44 -17 -25 2
-43 5 -41 9 2 3 0 32 -4 64 -7 53 -6 58 13 66 27 11 38 12 52 2z m-2801 -58
c81 -33 13 -108 -72 -79 -41 14 -52 35 -33 70 14 27 55 30 105 9z m2882 -21
c-3 -10 -5 -4 -5 12 0 17 2 24 5 18 2 -7 2 -21 0 -30z m-1655 -25 c-4 -17 -1
-19 16 -14 12 4 37 4 56 1 28 -6 36 -13 41 -37 4 -17 3 -40 -2 -52 -21 -45
-32 -88 -26 -102 3 -9 1 -25 -5 -37 -5 -12 -13 -31 -17 -42 -6 -19 -7 -19 -23
2 -13 17 -27 22 -58 21 -65 -1 -84 9 -84 43 0 17 5 29 13 29 9 0 14 13 15 36
1 24 8 42 21 50 15 11 18 20 12 42 -4 15 -4 41 1 59 6 24 12 30 27 26 13 -3
17 -11 13 -25z m1804 -141 c10 -66 10 -69 -10 -77 -12 -4 -25 -4 -31 0 -5 5
-32 10 -59 12 -44 4 -51 8 -59 32 -16 48 4 74 63 82 27 4 50 11 50 16 0 5 8 8
17 6 13 -2 20 -20 29 -71z m416 28 c10 -21 8 -28 -8 -40 -31 -24 -83 -45 -99
-38 -14 5 -32 50 -24 57 2 1 17 12 33 24 40 31 83 29 98 -3z m-3098 -115 c-11
-10 -28 -20 -39 -22 -32 -5 -28 25 7 48 28 18 34 19 42 7 5 -10 2 -21 -10 -33z
m492 -78 c5 3 32 2 61 -1 45 -6 52 -5 56 11 6 23 31 23 53 1 9 -10 36 -23 58
-30 25 -6 32 -11 19 -12 -36 -2 -53 -12 -53 -32 0 -12 -7 -19 -19 -19 -11 0
-22 -4 -25 -9 -3 -4 -17 -6 -31 -3 -21 4 -25 1 -25 -19 0 -15 -3 -20 -8 -12
-10 16 -52 5 -52 -13 0 -23 -26 -27 -59 -10 -35 18 -61 58 -42 64 6 2 11 11
11 19 0 13 -3 13 -16 2 -13 -10 -17 -10 -25 2 -15 24 -10 38 24 69 l32 29 16
-21 c9 -11 20 -19 25 -16z m1492 -64 c15 -24 18 -36 10 -45 -16 -20 -34 -15
-46 12 -29 63 1 89 36 33z m-134 -12 c-3 -11 -10 -25 -14 -30 -12 -12 -30 2
-25 19 3 8 7 22 10 30 2 9 11 12 20 9 11 -4 14 -13 9 -28z m112 -57 c15 -16
16 -24 6 -39 -15 -25 -15 -30 2 -30 7 0 16 -13 20 -30 5 -28 11 -31 51 -30 3
0 18 -6 34 -15 22 -11 31 -24 36 -55 8 -47 -4 -66 -50 -86 -24 -10 -35 -10
-57 2 -39 20 -51 17 -68 -17 -18 -37 -61 -65 -85 -55 -13 5 -15 9 -6 20 9 10
6 17 -14 30 -15 10 -32 15 -38 13 -7 -2 -18 8 -24 22 -7 14 -18 33 -24 42 -15
20 -6 58 21 86 11 12 20 26 20 30 0 5 14 14 30 20 26 10 30 16 30 47 0 28 5
38 28 50 38 21 66 20 88 -5z m907 -14 c8 -18 -11 -31 -25 -17 -11 11 -3 32 12
32 4 0 10 -7 13 -15z m-3603 -100 c-9 -10 -9 -27 -2 -62 11 -51 9 -57 -23 -67
-15 -4 -26 3 -44 30 -14 20 -35 40 -48 45 -31 12 -31 49 0 49 12 1 40 13 62
29 38 26 41 27 53 9 11 -15 11 -22 2 -33z m3020 20 c0 -8 -7 -15 -15 -15 -16
0 -20 12 -8 23 11 12 23 8 23 -8z m63 -34 c16 -6 28 -24 40 -61 l17 -52 -27
-22 c-15 -11 -34 -26 -42 -33 -46 -36 -121 16 -121 84 0 48 7 58 50 77 42 18
51 19 83 7z m-1613 -482 c0 -24 -23 -21 -28 4 -2 10 3 17 12 17 10 0 16 -9 16
-21z m67 -31 c-3 -8 -6 -5 -6 6 -1 11 2 17 5 13 3 -3 4 -12 1 -19z m-1237 -64
c0 -6 -11 -16 -24 -22 -15 -6 -27 -23 -31 -41 -7 -31 -29 -42 -38 -18 -7 18
43 105 62 109 17 4 31 -9 31 -28z"/>
<path d="M3368 4669 c-25 -9 -26 -12 -16 -41 10 -28 12 -29 21 -12 6 11 16 23
24 27 14 8 18 38 6 36 -5 0 -20 -5 -35 -10z"/>
<path d="M3980 4531 c0 -11 -4 -23 -10 -26 -5 -3 -10 -14 -10 -23 0 -12 8 -8
33 16 27 27 30 34 17 42 -22 14 -30 12 -30 -9z"/>
<path d="M3503 4453 c9 -2 23 -2 30 0 6 3 -1 5 -18 5 -16 0 -22 -2 -12 -5z"/>
<path d="M6041 4514 c0 -11 3 -14 6 -6 3 7 2 16 -1 19 -3 4 -6 -2 -5 -13z"/>
<path d="M5786 4132 c-3 -5 3 -19 14 -32 l19 -22 -3 28 c-3 29 -20 43 -30 26z"/>
<path d="M5397 4443 c-4 -3 -7 -11 -7 -17 0 -6 5 -5 12 2 6 6 9 14 7 17 -3 3
-9 2 -12 -2z"/>
<path d="M10468 5988 l-3 -273 -30 -4 -30 -4 30 -6 30 -6 0 -540 0 -540 -30
-6 -30 -6 30 -4 30 -4 0 -530 0 -529 -25 -7 -25 -7 28 -1 27 -1 -2 -542 -3
-543 -30 -6 -30 -6 30 -4 30 -4 3 -527 2 -526 -27 -10 -28 -10 28 -1 27 -1 0
-275 0 -275 413 -2 412 -3 6 -40 6 -40 2 43 1 42 833 -2 832 -3 6 -35 6 -35 2
38 1 37 830 0 830 0 1 -42 2 -43 6 40 6 40 830 0 830 0 6 -40 5 -40 5 40 4 40
830 0 830 0 6 -35 6 -35 2 38 1 37 425 0 425 0 0 2735 0 2735 -4200 0 -4200 0
-2 -272z m6219 -1740 c-3 -8 -6 -5 -6 6 -1 11 2 17 5 13 3 -3 4 -12 1 -19z
m-4310 -1820 l23 -21 0 -731 0 -730 -22 -23 -21 -23 -863 0 -863 0 -26 25 -25
26 0 724 0 724 25 26 26 25 861 0 862 0 23 -22z m4310 -1310 c-3 -8 -6 -5 -6
6 -1 11 2 17 5 13 3 -3 4 -12 1 -19z"/>
<path d="M11456 2251 c-4 -5 -10 -40 -15 -78 -5 -37 -12 -76 -16 -85 -5 -13
-2 -18 9 -18 9 0 19 13 24 33 12 47 47 49 66 3 14 -33 51 -64 63 -52 3 3 -6
23 -21 44 -30 44 -33 70 -9 87 14 11 16 18 8 42 -9 25 -16 28 -57 31 -25 2
-49 -1 -52 -7z m82 -43 c2 -19 -3 -30 -18 -38 -29 -15 -50 -6 -50 23 0 51 62
65 68 15z"/>
<path d="M10687 2183 c-10 -3 -17 -12 -15 -21 3 -15 29 -17 268 -17 236 0 265
2 268 16 2 10 -6 19 -20 23 -26 7 -474 6 -501 -1z"/>
<path d="M11593 2128 c-9 -17 9 -29 24 -17 18 15 32 -2 34 -41 1 -27 4 -22 14
24 4 22 10 27 25 23 11 -3 22 -1 25 3 3 5 -22 10 -56 12 -33 1 -63 0 -66 -4z"/>
<path d="M11770 2130 c0 -5 5 -10 11 -10 5 0 7 5 4 10 -3 6 -8 10 -11 10 -2 0
-4 -4 -4 -10z"/>
<path d="M11820 2113 c0 -13 3 -14 12 -5 23 23 38 13 38 -23 0 -19 5 -35 10
-35 6 0 10 18 10 40 0 39 -1 40 -35 40 -26 0 -35 -4 -35 -17z"/>
<path d="M11702 2065 c0 -16 2 -22 5 -12 2 9 2 23 0 30 -3 6 -5 -1 -5 -18z"/>
<path d="M11752 2060 c0 -14 2 -19 5 -12 2 6 2 18 0 25 -3 6 -5 1 -5 -13z"/>
<path d="M11802 2060 c0 -14 2 -19 5 -12 2 6 2 18 0 25 -3 6 -5 1 -5 -13z"/>
<path d="M11456 1748 c-16 -39 -26 -148 -14 -148 5 0 10 6 12 13 2 6 9 31 15
55 10 35 16 42 37 42 29 0 42 -25 26 -51 -15 -23 -16 -69 -2 -69 6 0 10 8 10
17 0 9 5 31 12 49 17 48 -1 84 -42 84 -27 0 -30 3 -25 20 11 34 -15 23 -29
-12z"/>
<path d="M11798 1732 c-55 -54 -23 -142 51 -142 40 0 81 34 63 52 -10 10 -14
8 -18 -10 -5 -17 -14 -22 -41 -22 -43 0 -63 19 -63 62 0 39 28 68 66 68 14 0
23 4 19 10 -11 18 -50 9 -77 -18z"/>
<path d="M12038 1722 c-8 -9 -21 -32 -28 -50 -16 -41 1 -79 37 -84 36 -5 33
-23 -4 -26 -43 -4 -43 -22 -1 -22 41 0 78 40 78 85 0 17 5 36 11 42 6 6 9 23
7 38 -3 24 -8 28 -44 31 -30 3 -45 -1 -56 -14z m62 -45 c0 -46 -23 -76 -47
-61 -11 8 -17 22 -16 40 3 44 11 54 38 54 22 0 25 -4 25 -33z"/>
<path d="M10680 1716 c0 -8 7 -17 16 -20 20 -8 468 -8 488 0 9 3 16 12 16 20
0 12 -44 14 -260 14 -216 0 -260 -2 -260 -14z"/>
<path d="M11891 1713 c7 -10 15 -20 16 -22 2 -2 3 5 3 17 0 14 -6 22 -16 22
-14 0 -15 -3 -3 -17z"/>
<path d="M11603 1669 c19 -11 24 -68 6 -86 -15 -15 5 -26 32 -18 15 5 18 10
10 18 -6 6 -11 30 -11 54 0 40 -2 43 -27 43 -24 -1 -25 -2 -10 -11z"/>
<path d="M11830 1676 c0 -2 7 -6 15 -10 8 -3 15 -1 15 4 0 6 -7 10 -15 10 -8
0 -15 -2 -15 -4z"/>
<path d="M12190 1669 c13 -6 28 -15 32 -22 4 -6 10 -8 14 -5 11 12 -23 38 -48
37 l-23 0 25 -10z"/>
<path d="M12167 1585 c-8 -19 2 -24 36 -18 25 5 26 6 10 19 -24 18 -40 17 -46
-1z"/>
<path d="M11460 1290 c-7 -13 -15 -50 -17 -84 -3 -33 -10 -67 -16 -73 -6 -9
-6 -13 1 -13 16 0 30 23 37 62 9 45 23 59 54 51 19 -5 22 -10 16 -32 -15 -59
-17 -91 -6 -91 6 0 11 11 11 25 0 14 7 36 15 48 20 31 0 70 -40 77 -19 3 -30
11 -30 22 0 27 -13 31 -25 8z"/>
<path d="M11798 1259 c-57 -43 -21 -149 51 -149 32 0 73 40 61 59 -6 10 -10 8
-15 -8 -5 -16 -14 -21 -44 -21 -46 0 -61 14 -61 58 0 63 76 88 104 35 l15 -28
1 28 c0 17 -5 27 -15 27 -8 0 -15 5 -15 10 0 17 -54 10 -82 -11z"/>
<path d="M12038 1242 c-8 -9 -20 -30 -28 -45 -12 -25 -12 -31 2 -55 9 -15 25
-29 35 -30 31 -6 39 -22 11 -22 -40 0 -63 -11 -46 -21 45 -29 108 18 108 81 0
21 5 42 10 45 6 3 10 19 10 34 0 27 -3 29 -44 29 -30 1 -48 -4 -58 -16z m59
-18 c3 -9 2 -33 -3 -53 -7 -28 -14 -35 -29 -33 -27 5 -36 22 -29 52 11 47 48
68 61 34z"/>
<path d="M11600 1200 c0 -5 11 -10 25 -10 17 0 25 -6 26 -17 0 -12 2 -13 6 -5
3 7 -1 19 -7 27 -14 17 -50 20 -50 5z"/>
<path d="M11845 1200 c-3 -5 -1 -10 4 -10 6 0 11 5 11 10 0 6 -2 10 -4 10 -3
0 -8 -4 -11 -10z"/>
<path d="M12176 1201 c-3 -5 1 -11 9 -15 17 -6 21 -61 5 -71 -18 -11 -10 -25
15 -25 25 0 33 14 15 25 -5 3 -10 26 -10 51 0 32 -4 44 -14 44 -8 0 -17 -4
-20 -9z"/>
<path d="M11590 1110 c-10 -18 -8 -20 20 -20 34 0 39 14 10 30 -15 8 -21 6
-30 -10z"/>
<path d="M521 5760 c-7 -17 -11 -34 -7 -37 3 -3 8 2 12 11 9 24 24 9 24 -24 0
-19 -7 -33 -20 -40 -26 -14 -43 -4 -37 21 8 30 -8 22 -20 -11 -11 -29 -10 -30
17 -30 41 0 60 -10 60 -31 0 -10 5 -19 10 -19 6 0 10 11 10 25 0 14 5 25 11
25 8 0 8 4 1 13 -6 7 -12 37 -14 67 -4 65 -25 78 -47 30z"/>
<path d="M10211 5760 c-7 -17 -11 -34 -7 -37 3 -3 8 2 12 11 9 24 24 9 24 -24
0 -19 -7 -33 -20 -40 -26 -14 -43 -4 -37 21 3 11 1 19 -4 19 -5 0 -9 -3 -9 -7
0 -5 -3 -18 -6 -30 -5 -20 -2 -23 19 -23 38 0 57 -10 57 -31 0 -10 5 -19 10
-19 6 0 10 11 10 25 0 14 5 25 11 25 8 0 8 4 1 13 -6 7 -12 37 -14 67 -4 65
-25 78 -47 30z"/>
<path d="M485 4705 c6 -2 22 -6 37 -9 53 -12 45 -57 -22 -126 -17 -17 -28 -35
-25 -41 4 -5 27 -9 53 -9 l47 1 -33 14 c-35 15 -35 20 2 63 27 30 38 70 25 94
-7 13 -21 18 -52 17 -23 0 -37 -2 -32 -4z"/>
<path d="M10175 4705 c6 -2 22 -6 37 -9 53 -12 45 -57 -22 -126 -17 -17 -28
-35 -25 -41 4 -5 27 -9 53 -9 l47 1 -33 14 c-35 15 -35 20 2 63 27 30 38 70
25 94 -7 13 -21 18 -52 17 -23 0 -37 -2 -32 -4z"/>
<path d="M492 3598 c-7 -7 -12 -41 -12 -83 0 -42 5 -76 12 -83 29 -29 94 0 81
35 -6 14 -8 14 -16 -5 -14 -30 -53 -29 -61 1 -3 12 -6 36 -6 52 0 53 11 75 35
75 13 0 26 -7 29 -16 3 -8 10 -12 16 -9 7 4 7 13 0 26 -12 22 -59 26 -78 7z"/>
<path d="M10181 3596 c-7 -9 -11 -42 -9 -87 3 -80 16 -97 61 -85 21 5 27 12
26 34 0 27 -1 27 -11 5 -7 -14 -20 -23 -33 -23 -24 0 -35 23 -35 75 0 53 11
75 35 75 13 0 26 -7 29 -16 3 -8 10 -12 16 -9 7 4 7 13 0 26 -13 23 -62 26
-79 5z"/>
<path d="M582 3515 c0 -16 2 -22 5 -12 2 9 2 23 0 30 -3 6 -5 -1 -5 -18z"/>
<path d="M10272 3515 c0 -16 2 -22 5 -12 2 9 2 23 0 30 -3 6 -5 -1 -5 -18z"/>
<path d="M471 2523 c26 -3 40 -11 50 -29 8 -16 9 -28 4 -32 -6 -4 -29 -31 -53
-60 -47 -57 -43 -68 18 -53 23 6 28 9 13 10 -32 1 -35 14 -10 42 41 45 52 76
37 104 -11 21 -20 25 -54 23 l-41 -1 36 -4z"/>
<path d="M10159 2523 c30 -4 60 -25 61 -44 0 -3 -23 -33 -50 -67 -54 -66 -52
-78 10 -63 23 6 28 9 13 10 -32 1 -35 14 -10 42 41 45 52 76 37 104 -11 21
-20 25 -54 23 -40 -1 -40 -1 -7 -5z"/>
<path d="M293 2423 c20 -2 54 -2 75 0 20 2 3 4 -38 4 -41 0 -58 -2 -37 -4z"/>
<path d="M9983 2423 c20 -2 54 -2 75 0 20 2 3 4 -38 4 -41 0 -58 -2 -37 -4z"/>
<path d="M486 1415 c-3 -8 2 -27 11 -43 9 -16 14 -36 10 -45 -8 -21 -40 -22
-57 -2 -9 10 -17 12 -23 6 -18 -18 1 -40 40 -43 30 -2 38 -8 43 -28 l6 -25 7
28 c4 15 12 27 19 27 6 0 3 9 -7 20 -14 16 -17 30 -12 70 5 44 4 50 -12 50
-11 0 -21 -7 -25 -15z"/>
<path d="M10176 1415 c-3 -8 2 -27 11 -43 9 -16 14 -36 10 -45 -8 -21 -40 -22
-57 -2 -9 10 -17 12 -23 6 -18 -18 1 -40 40 -43 30 -2 38 -8 43 -28 l6 -25 7
28 c4 15 12 27 19 27 6 0 3 9 -7 20 -14 16 -17 30 -12 70 5 44 4 50 -12 50
-11 0 -21 -7 -25 -15z"/>
<path d="M461 1364 c0 -11 3 -14 6 -6 3 7 2 16 -1 19 -3 4 -6 -2 -5 -13z"/>
<path d="M10151 1364 c0 -11 3 -14 6 -6 3 7 2 16 -1 19 -3 4 -6 -2 -5 -13z"/>
<path d="M293 1323 c20 -2 54 -2 75 0 20 2 3 4 -38 4 -41 0 -58 -2 -37 -4z"/>
<path d="M9983 1323 c20 -2 54 -2 75 0 20 2 3 4 -38 4 -41 0 -58 -2 -37 -4z"/>
<path d="M1696 594 c-20 -19 -20 -22 0 -41 21 -21 14 -67 -10 -72 -11 -2 -26
5 -33 15 -10 13 -16 15 -24 7 -16 -16 -2 -33 26 -33 36 0 55 -10 55 -31 0 -10
5 -19 10 -19 6 0 10 8 10 18 0 10 5 23 11 29 8 8 8 13 0 17 -6 4 -11 31 -11
61 0 59 -10 74 -34 49z"/>
<path d="M11386 594 c-20 -19 -20 -22 0 -41 21 -21 14 -67 -10 -72 -11 -2 -26
5 -33 15 -10 13 -16 15 -24 7 -16 -16 -2 -33 26 -33 36 0 55 -10 55 -31 0 -10
5 -19 10 -19 6 0 10 8 10 18 0 10 5 23 11 29 8 8 8 13 0 17 -6 4 -11 31 -11
61 0 59 -10 74 -34 49z"/>
<path d="M3351 593 c27 -3 39 -11 47 -29 7 -15 8 -24 2 -24 -6 0 -10 -6 -10
-13 0 -7 -18 -31 -40 -52 -22 -21 -40 -43 -40 -47 0 -4 26 -7 58 -7 32 1 44 4
27 6 -44 7 -51 19 -23 45 14 13 31 39 38 60 17 47 -1 69 -57 66 l-38 -1 36 -4z"/>
<path d="M4942 588 c-16 -16 -16 -140 0 -156 18 -18 75 -15 82 4 12 31 5 38
-14 14 -16 -20 -22 -23 -37 -14 -19 12 -30 86 -18 131 7 29 40 31 55 2 14 -25
24 -18 15 10 -5 16 -15 21 -39 21 -17 0 -37 -5 -44 -12z"/>
<path d="M6642 593 c67 -7 61 -61 -14 -136 -15 -16 -28 -30 -28 -33 0 -2 24
-3 53 -3 28 1 40 4 25 6 -36 6 -36 26 2 66 31 33 39 74 18 95 -7 7 -30 11 -52
10 l-41 -1 37 -4z"/>
<path d="M8325 570 c-9 -17 -11 -30 -5 -30 5 0 10 5 10 10 0 6 7 10 15 10 24
0 20 -67 -5 -75 -26 -8 -40 1 -41 28 -1 20 -2 21 -6 2 -3 -11 -10 -26 -15 -32
-8 -10 -4 -13 16 -13 35 0 66 -17 66 -35 0 -8 5 -15 10 -15 6 0 10 8 10 18 0
10 5 23 12 30 9 9 9 12 0 12 -8 0 -12 20 -12 60 0 53 -2 60 -20 60 -12 0 -26
-12 -35 -30z"/>
<path d="M13041 593 c27 -3 39 -11 47 -29 7 -15 8 -24 2 -24 -6 0 -10 -6 -10
-13 0 -7 -18 -31 -40 -52 -22 -21 -40 -43 -40 -47 0 -4 26 -7 58 -7 32 1 44 4
27 6 -44 7 -51 19 -23 45 14 13 31 39 38 60 17 47 -1 69 -57 66 l-38 -1 36 -4z"/>
<path d="M14632 588 c-7 -7 -12 -40 -12 -78 0 -38 5 -71 12 -78 18 -18 75 -15
82 4 12 31 5 38 -14 14 -16 -20 -22 -23 -37 -14 -19 12 -30 86 -18 131 7 29
40 31 55 2 14 -25 24 -18 15 10 -5 16 -15 21 -39 21 -17 0 -37 -5 -44 -12z"/>
<path d="M16332 593 c67 -7 61 -61 -14 -136 -15 -16 -28 -30 -28 -33 0 -2 24
-3 53 -3 28 1 40 4 25 6 -36 6 -36 26 2 66 31 33 39 74 18 95 -7 7 -30 11 -52
10 l-41 -1 37 -4z"/>
<path d="M18015 570 c-9 -17 -11 -30 -5 -30 5 0 10 5 10 10 0 6 7 10 15 10 24
0 20 -67 -5 -75 -26 -8 -40 1 -41 28 -1 20 -2 21 -6 2 -3 -11 -10 -26 -15 -32
-8 -10 -4 -13 16 -13 35 0 66 -17 66 -35 0 -8 5 -15 10 -15 6 0 10 8 10 18 0
10 5 23 12 30 9 9 9 12 0 12 -8 0 -12 20 -12 60 0 53 -2 60 -20 60 -12 0 -26
-12 -35 -30z"/>
<path d="M1662 540 c0 -14 2 -19 5 -12 2 6 2 18 0 25 -3 6 -5 1 -5 -13z"/>
<path d="M11352 540 c0 -14 2 -19 5 -12 2 6 2 18 0 25 -3 6 -5 1 -5 -13z"/>
<path d="M5032 510 c0 -14 2 -19 5 -12 2 6 2 18 0 25 -3 6 -5 1 -5 -13z"/>
<path d="M14722 510 c0 -14 2 -19 5 -12 2 6 2 18 0 25 -3 6 -5 1 -5 -13z"/>
<path d="M1493 493 c20 -2 54 -2 75 0 20 2 3 4 -38 4 -41 0 -58 -2 -37 -4z"/>
<path d="M3173 493 c20 -2 54 -2 75 0 20 2 3 4 -38 4 -41 0 -58 -2 -37 -4z"/>
<path d="M11183 493 c20 -2 54 -2 75 0 20 2 3 4 -38 4 -41 0 -58 -2 -37 -4z"/>
<path d="M12863 493 c20 -2 54 -2 75 0 20 2 3 4 -38 4 -41 0 -58 -2 -37 -4z"/>
</g>
</svg>
